# xmcd CD database file
#
# Track frame offsets:
#	150
#	29763
#	95101
#	124179
#	172332
#	204433
#	250710
#
# Disc length: 3996 seconds
#
# Revision: 1
# Processed by: cddbd v1.5.2PL0 Copyright (c) Steve Scherf et al.
# Submitted via: CDex 1.70beta2
#
DISCID=660f9a07
DTITLE=Chat Noir - Adoration
DYEAR=2006
DGENRE=Jazz
TTITLE0=Noir451
TTITLE1=Introvabile
TTITLE2=Rosendal
TTITLE3=Sabbie Di Ostenda
TTITLE4=Thimares
TTITLE5=Le Reveil Du Chat
TTITLE6=Adoration
EXTD=YEAR: 2006
EXTT0=
EXTT1=
EXTT2=
EXTT3=
EXTT4=
EXTT5=
EXTT6=
PLAYORDER=
